<svg xmlns="http://www.w3.org/2000/svg" viewBox="0 0 512 512" width="100" height="100">
  <path fill="#fff" stroke="#16161a" stroke-width="40" d="M80 80h352v352H192l-80 80z" stroke-linecap="round" stroke-linejoin="round"/>
  <g transform="translate(130, 110) scale(10)">
    <path d="M10 20C9.44772 20 9 19.5523 9 19V8C9 7.44772 9.44772 7 10 7H13.7531C14.4801 7 15.1591 7.07311 15.7901 7.21932C16.4348 7.35225 16.9904 7.58487 17.4568 7.91718C17.9369 8.2362 18.3141 8.6682 18.5885 9.21319C18.8628 9.74489 19 10.4029 19 11.1871C19 11.9448 18.856 12.6028 18.5679 13.161C18.2936 13.7193 17.9163 14.1779 17.4362 14.5368C16.9561 14.8957 16.4005 15.1616 15.7695 15.3344C15.1385 15.5072 14.4664 15.5936 13.7531 15.5936H13.0247C12.4724 15.5936 12.0247 16.0413 12.0247 16.5936V19C12.0247 19.5523 11.577 20 11.0247 20H10ZM12.0247 12.2607C12.0247 12.813 12.4724 13.2607 13.0247 13.2607H13.5679C15.214 13.2607 16.037 12.5695 16.037 11.1871C16.037 10.5092 15.8244 10.0307 15.3992 9.75153C14.9877 9.47239 14.3772 9.33282 13.5679 9.33282H13.0247C12.4724 9.33282 12.0247 9.78054 12.0247 10.3328V12.2607Z" fill="#16161a"/>
  </g>
</svg>
